<mxfile host="Electron" agent="Mozilla/5.0 (Windows NT 10.0; Win64; x64) AppleWebKit/537.36 (KHTML, like Gecko) draw.io/26.2.2 Chrome/134.0.6998.178 Electron/35.1.2 Safari/537.36" version="26.2.2">
  <diagram name="Page-1" id="aoZUUVvXaLKzMGomDm1n">
    <mxGraphModel dx="766" dy="521" grid="1" gridSize="10" guides="1" tooltips="1" connect="1" arrows="1" fold="1" page="1" pageScale="1" pageWidth="850" pageHeight="1100" math="0" shadow="0">
      <root>
        <mxCell id="0" />
        <mxCell id="1" parent="0" />
        <mxCell id="q5GbR-MSeyZgJuaERA4j-1" value="&amp;lt;&amp;lt;Component&amp;gt;&amp;gt;&lt;div&gt;Database&lt;/div&gt;" style="shape=module;align=left;spacingLeft=20;align=center;verticalAlign=top;whiteSpace=wrap;html=1;" vertex="1" parent="1">
          <mxGeometry x="40" y="110" width="150" height="50" as="geometry" />
        </mxCell>
        <mxCell id="q5GbR-MSeyZgJuaERA4j-2" value="" style="endArrow=block;dashed=1;endFill=0;endSize=12;html=1;rounded=0;entryX=0.6;entryY=1.04;entryDx=0;entryDy=0;entryPerimeter=0;" edge="1" parent="1">
          <mxGeometry width="160" relative="1" as="geometry">
            <mxPoint x="120" y="218" as="sourcePoint" />
            <mxPoint x="120" y="160" as="targetPoint" />
          </mxGeometry>
        </mxCell>
        <mxCell id="q5GbR-MSeyZgJuaERA4j-3" value="&amp;lt;&amp;lt;Component&amp;gt;&amp;gt;&lt;div&gt;InterviewManager&lt;/div&gt;" style="shape=module;align=left;spacingLeft=20;align=center;verticalAlign=top;whiteSpace=wrap;html=1;" vertex="1" parent="1">
          <mxGeometry x="40" y="220" width="150" height="50" as="geometry" />
        </mxCell>
        <mxCell id="q5GbR-MSeyZgJuaERA4j-4" value="&amp;lt;&amp;lt;Component&amp;gt;&amp;gt;&lt;div&gt;Calendar&lt;/div&gt;" style="shape=module;align=left;spacingLeft=20;align=center;verticalAlign=top;whiteSpace=wrap;html=1;" vertex="1" parent="1">
          <mxGeometry x="240" y="110" width="150" height="50" as="geometry" />
        </mxCell>
        <mxCell id="q5GbR-MSeyZgJuaERA4j-5" value="&amp;lt;&amp;lt;Component&amp;gt;&amp;gt;&lt;div&gt;InterviewStrategy&lt;/div&gt;" style="shape=module;align=left;spacingLeft=20;align=center;verticalAlign=top;whiteSpace=wrap;html=1;" vertex="1" parent="1">
          <mxGeometry x="240" y="220" width="150" height="50" as="geometry" />
        </mxCell>
        <mxCell id="q5GbR-MSeyZgJuaERA4j-9" value="" style="rounded=0;orthogonalLoop=1;jettySize=auto;html=1;endArrow=halfCircle;endFill=0;endSize=6;strokeWidth=1;sketch=0;exitX=0.053;exitY=0.48;exitDx=0;exitDy=0;exitPerimeter=0;" edge="1" target="q5GbR-MSeyZgJuaERA4j-11" parent="1" source="q5GbR-MSeyZgJuaERA4j-5">
          <mxGeometry relative="1" as="geometry">
            <mxPoint x="230" y="245" as="sourcePoint" />
          </mxGeometry>
        </mxCell>
        <mxCell id="q5GbR-MSeyZgJuaERA4j-10" value="" style="rounded=0;orthogonalLoop=1;jettySize=auto;html=1;endArrow=oval;endFill=0;sketch=0;sourcePerimeterSpacing=0;targetPerimeterSpacing=0;endSize=10;" edge="1" target="q5GbR-MSeyZgJuaERA4j-11" parent="1">
          <mxGeometry relative="1" as="geometry">
            <mxPoint x="190" y="245" as="sourcePoint" />
          </mxGeometry>
        </mxCell>
        <mxCell id="q5GbR-MSeyZgJuaERA4j-11" value="" style="ellipse;whiteSpace=wrap;html=1;align=center;aspect=fixed;fillColor=none;strokeColor=none;resizable=0;perimeter=centerPerimeter;rotatable=0;allowArrows=0;points=[];outlineConnect=1;" vertex="1" parent="1">
          <mxGeometry x="205" y="240" width="10" height="10" as="geometry" />
        </mxCell>
        <mxCell id="q5GbR-MSeyZgJuaERA4j-12" value="" style="endArrow=block;dashed=1;endFill=0;endSize=12;html=1;rounded=0;" edge="1" parent="1">
          <mxGeometry width="160" relative="1" as="geometry">
            <mxPoint x="320" y="218" as="sourcePoint" />
            <mxPoint x="320" y="160" as="targetPoint" />
          </mxGeometry>
        </mxCell>
        <mxCell id="q5GbR-MSeyZgJuaERA4j-13" value="&amp;lt;&amp;lt;Component&amp;gt;&amp;gt;&lt;div&gt;NotificationManager&lt;/div&gt;" style="shape=module;align=left;spacingLeft=20;align=center;verticalAlign=top;whiteSpace=wrap;html=1;" vertex="1" parent="1">
          <mxGeometry x="240" y="330" width="150" height="50" as="geometry" />
        </mxCell>
        <mxCell id="q5GbR-MSeyZgJuaERA4j-14" value="" style="endArrow=block;dashed=1;endFill=0;endSize=12;html=1;rounded=0;exitX=0.533;exitY=1;exitDx=0;exitDy=0;exitPerimeter=0;" edge="1" parent="1" source="q5GbR-MSeyZgJuaERA4j-3">
          <mxGeometry width="160" relative="1" as="geometry">
            <mxPoint x="114.5" y="300" as="sourcePoint" />
            <mxPoint x="240" y="360" as="targetPoint" />
            <Array as="points">
              <mxPoint x="120" y="360" />
            </Array>
          </mxGeometry>
        </mxCell>
        <mxCell id="q5GbR-MSeyZgJuaERA4j-15" value="&amp;lt;&amp;lt;Component&amp;gt;&amp;gt;&lt;div&gt;SubmissionHandler&lt;/div&gt;" style="shape=module;align=left;spacingLeft=20;align=center;verticalAlign=top;whiteSpace=wrap;html=1;" vertex="1" parent="1">
          <mxGeometry x="480" y="220" width="150" height="50" as="geometry" />
        </mxCell>
        <mxCell id="q5GbR-MSeyZgJuaERA4j-16" value="" style="endArrow=block;dashed=1;endFill=0;endSize=12;html=1;rounded=0;exitX=1;exitY=0.5;exitDx=0;exitDy=0;entryX=0.04;entryY=0.48;entryDx=0;entryDy=0;entryPerimeter=0;" edge="1" parent="1" source="q5GbR-MSeyZgJuaERA4j-5" target="q5GbR-MSeyZgJuaERA4j-15">
          <mxGeometry width="160" relative="1" as="geometry">
            <mxPoint x="431" y="240" as="sourcePoint" />
            <mxPoint x="431" y="182" as="targetPoint" />
          </mxGeometry>
        </mxCell>
        <mxCell id="q5GbR-MSeyZgJuaERA4j-17" value="" style="endArrow=block;dashed=1;endFill=0;endSize=12;html=1;rounded=0;" edge="1" parent="1">
          <mxGeometry width="160" relative="1" as="geometry">
            <mxPoint x="320" y="270" as="sourcePoint" />
            <mxPoint x="320" y="330" as="targetPoint" />
          </mxGeometry>
        </mxCell>
        <mxCell id="q5GbR-MSeyZgJuaERA4j-18" value="&amp;lt;&amp;lt;Component&amp;gt;&amp;gt;&lt;div&gt;TimeSlotChecker&lt;/div&gt;" style="shape=module;align=left;spacingLeft=20;align=center;verticalAlign=top;whiteSpace=wrap;html=1;" vertex="1" parent="1">
          <mxGeometry x="480" y="320" width="150" height="50" as="geometry" />
        </mxCell>
        <mxCell id="q5GbR-MSeyZgJuaERA4j-19" value="" style="endArrow=block;dashed=1;endFill=0;endSize=12;html=1;rounded=0;" edge="1" parent="1">
          <mxGeometry width="160" relative="1" as="geometry">
            <mxPoint x="560" y="270" as="sourcePoint" />
            <mxPoint x="560" y="320" as="targetPoint" />
          </mxGeometry>
        </mxCell>
      </root>
    </mxGraphModel>
  </diagram>
</mxfile>
